/vscmnt/brussel_pixiu_data/_data_brussel/112/vsc11236/PredSimResults/SUBJ11opt3D/expIG/worker_02.mot
version=1
nRows=4
nColumns=50
inDegrees=yes
endheader
                time	         pelvis_tilt	         pelvis_list	     pelvis_rotation	           pelvis_tx	           pelvis_ty	           pelvis_tz	       hip_flexion_r	     hip_adduction_r	      hip_rotation_r	        knee_angle_r	       ankle_angle_r	         mtp_angle_r	       hip_flexion_l	     hip_adduction_l	      hip_rotation_l	        knee_angle_l	       ankle_angle_l	         mtp_angle_l	    lumbar_extension	      lumbar_bending	     lumbar_rotation	 ercspn_r/activation	 intobl_r/activation	 extobl_r/activation	    abd_r/activation	    add_r/activation	hamstrings_r/activation	bifemsh_r/activation	glut_max_r/activation	iliopsoas_r/activation	rect_fem_r/activation	  vasti_r/activation	gastroc_r/activation	 soleus_r/activation	tib_ant_r/activation	 ercspn_l/activation	 intobl_l/activation	 extobl_l/activation	    abd_l/activation	    add_l/activation	hamstrings_l/activation	bifemsh_l/activation	glut_max_l/activation	iliopsoas_l/activation	rect_fem_l/activation	  vasti_l/activation	gastroc_l/activation	 soleus_l/activation	tib_ant_l/activation	
          0.90822350	         -2.15393448	         -2.04931150	          0.10589928	          0.63575645	          0.94977441	          0.00836394	        -10.22251421	          0.82234873	        -13.03805067	        -13.48069268	         13.90495056	         24.04699893	         29.12817953	         -3.05823362	          1.08204739	         -9.79744636	         -0.59762039	          0.22799128	        -15.21509895	          6.68870411	          3.93244566	          0.01302740	          0.01000000	          0.00999999	          0.06368051	          0.01302741	          0.00999999	          0.08949861	          0.01816801	          0.07890645	          0.03752236	          0.00999999	          0.13209049	          0.28142925	          0.00999999	          0.01302740	          0.19197587	          0.07393625	          0.00999999	          0.12094236	          0.00999999	          0.12262807	          0.09387119	          0.09712274	          0.06368053	          0.02673554	          0.01000001	          0.00999999	          0.30982106	
          0.92638797	         -2.36909332	         -2.22530275	          0.66640607	          0.65260758	          0.94715395	          0.00479113	        -10.68950960	          0.84818162	        -14.02560219	        -14.22580723	         13.51690177	         25.54695312	         28.44360116	         -2.83502043	          1.24108326	         -9.82167319	         -1.27969475	          0.20367636	        -14.76494886	          6.29518257	          4.21509612	          0.00999999	          0.00999999	          0.01302744	          0.04888194	          0.01000000	          0.01205277	          0.06870022	          0.01404004	          0.06056955	          0.02880262	          0.02574741	          0.10336681	          0.26809538	          0.00999999	          0.00999999	          0.20243987	          0.05675437	          0.03659239	          0.09992136	          0.03234412	          0.09413080	          0.07643472	          0.07455260	          0.04888195	          0.02052253	          0.01000000	          0.00999999	          0.36738706	
          0.94455244	         -2.57273061	         -2.36425796	          1.25622807	          0.66982535	          0.94527548	          0.00110405	        -11.06050731	          0.80578980	        -14.99206461	        -15.15795006	         12.83396233	         27.14875590	         27.84471823	         -2.63746421	          1.24985068	         -9.96913880	         -2.29109674	          0.18619011	        -14.27961665	          5.83132226	          4.48538901	          0.00999999	          0.00999999	          0.01000002	          0.03752237	          0.00999999	          0.00999999	          0.05273513	          0.01077731	          0.04649393	          0.02210925	          0.02380171	          0.07934563	          0.24765344	          0.00999999	          0.01518221	          0.15539531	          0.04356534	          0.06679823	          0.11862936	          0.04431155	          0.07225595	          0.06923668	          0.05722748	          0.03752238	          0.05798192	          0.00999999	          0.00999999	          0.43361264	
          0.96271691	         -2.76570904	         -2.49078883	          1.87718170	          0.68708177	          0.94445159	         -0.00268218	        -11.22112046	          0.69491744	        -15.94933163	        -16.42407903	         11.78159670	         28.87938472	         27.42532170	         -2.45361725	          1.12894650	        -10.45691545	         -3.12005795	          0.13775807	        -13.79771169	          5.33251671	          4.74395251	          0.02638176	          0.00999999	          0.00999999	          0.02880263	          0.01000000	          0.00999999	          0.04048013	          0.01097833	          0.03568931	          0.01697133	          0.03527292	          0.06090667	          0.21887612	          0.00999999	          0.01669268	          0.11928334	          0.03344129	          0.08917078	          0.12461479	          0.05043770	          0.05546455	          0.07282697	          0.04392851	          0.02880264	          0.10721992	          0.00999999	          0.00999999	          0.45792344	
